<svg id="Layer_2" data-name="Layer 2" xmlns="http://www.w3.org/2000/svg" viewBox="0 0 246.52 34.87"><defs><style>.cls-1{fill:aqua;}.cls-2{fill:#ff0;}.cls-3{fill:#f0f;}</style></defs><title>tellyprompt</title><path d="M335.72,361.88v2.63h-3.61v11.24a3.23,3.23,0,0,0,.09.84,0.86,0.86,0,0,0,.33.49,1.46,1.46,0,0,0,.68.23,9.88,9.88,0,0,0,1.14.05h1.37V380h-2.28a10.68,10.68,0,0,1-2-.16,2.9,2.9,0,0,1-1.33-.58,2.46,2.46,0,0,1-.75-1.19,6.85,6.85,0,0,1-.25-2V364.5h-3.08v-2.62h3.08v-5.42h3v5.42h3.61Z" transform="translate(-262.77 -352.35)"/><path d="M351.82,378.82a8.21,8.21,0,0,1-5.11,1.54,9.3,9.3,0,0,1-3.76-.7,7.41,7.41,0,0,1-2.68-2,8.32,8.32,0,0,1-1.63-3,14.48,14.48,0,0,1-.61-3.81,10.89,10.89,0,0,1,.63-3.78,9,9,0,0,1,1.77-3,8,8,0,0,1,2.69-2,8.23,8.23,0,0,1,3.41-.7,7.42,7.42,0,0,1,4,1A7.94,7.94,0,0,1,353.1,365a10.06,10.06,0,0,1,1.33,3.36,14.44,14.44,0,0,1,.3,3.47H341.18a7.18,7.18,0,0,0,.28,2.26,5.11,5.11,0,0,0,1,1.89,5,5,0,0,0,1.79,1.31,6.16,6.16,0,0,0,2.55.49,5.15,5.15,0,0,0,3.1-.87,4.23,4.23,0,0,0,1.59-2.66h2.94A7.23,7.23,0,0,1,351.82,378.82ZM351.1,367.2a5.1,5.1,0,0,0-1.08-1.63,5.16,5.16,0,0,0-1.61-1.08,5.09,5.09,0,0,0-2-.4,5.18,5.18,0,0,0-2.08.4,4.81,4.81,0,0,0-1.59,1.1,5.28,5.28,0,0,0-1,1.63,6.2,6.2,0,0,0-.46,2h10.4A6.14,6.14,0,0,0,351.1,367.2Z" transform="translate(-262.77 -352.35)"/><path d="M361,355v25h-3V355h3Z" transform="translate(-262.77 -352.35)"/><path d="M368.72,355v25h-3V355h3Z" transform="translate(-262.77 -352.35)"/><path d="M380.45,382.39a19,19,0,0,1-1,2.24,6.14,6.14,0,0,1-1.12,1.49,3.8,3.8,0,0,1-1.37.84,5.24,5.24,0,0,1-1.73.26,7.9,7.9,0,0,1-1-.07,5,5,0,0,1-1-.24v-2.73a5.08,5.08,0,0,0,.89.3,3.77,3.77,0,0,0,.86.12,2.56,2.56,0,0,0,1.52-.44,2.69,2.69,0,0,0,.93-1.24l1.23-3-7.18-18h3.36L380,376.68h0.07l5.08-14.81h3.15Z" transform="translate(-262.77 -352.35)"/><path d="M395.22,361.88v2.31h0.07a5.46,5.46,0,0,1,2.31-2.13,7.09,7.09,0,0,1,3.08-.67,7.84,7.84,0,0,1,3.67.81,7.59,7.59,0,0,1,2.55,2.13,9,9,0,0,1,1.5,3.1,13.74,13.74,0,0,1,.49,3.69,12.42,12.42,0,0,1-.49,3.5,8.9,8.9,0,0,1-1.49,3,7.37,7.37,0,0,1-2.48,2.06,7.49,7.49,0,0,1-3.48.77,7,7,0,0,1-3.1-.68,5.86,5.86,0,0,1-2.33-2h-0.07v8.58h-5V361.88h4.73Zm6.46,14.35A4,4,0,0,0,403,375a5.27,5.27,0,0,0,.72-1.84,10.89,10.89,0,0,0,.21-2.14,10.07,10.07,0,0,0-.23-2.13A5.69,5.69,0,0,0,403,367a4.2,4.2,0,0,0-1.35-1.33,3.77,3.77,0,0,0-2-.51,3.84,3.84,0,0,0-2,.51,4.08,4.08,0,0,0-1.33,1.31,5.47,5.47,0,0,0-.72,1.85,11.07,11.07,0,0,0-.21,2.17,10.07,10.07,0,0,0,.23,2.14,5.52,5.52,0,0,0,.74,1.84A4.24,4.24,0,0,0,401.68,376.23Z" transform="translate(-262.77 -352.35)"/><path d="M416.6,361.88v3.36h0.07a6.12,6.12,0,0,1,.95-1.56,6.19,6.19,0,0,1,1.37-1.23,6.69,6.69,0,0,1,1.64-.79,5.94,5.94,0,0,1,1.82-.28,3.89,3.89,0,0,1,1.08.17v4.62q-0.35-.07-0.84-0.12a9,9,0,0,0-.95-0.05,5.29,5.29,0,0,0-2.31.46,4,4,0,0,0-1.52,1.24,5,5,0,0,0-.82,1.84,10,10,0,0,0-.25,2.28V380h-5v-18.1h4.73Z" transform="translate(-262.77 -352.35)"/><path d="M425,367a8.27,8.27,0,0,1,4.83-4.94,10.33,10.33,0,0,1,3.85-.68,10.48,10.48,0,0,1,3.87.68,8.24,8.24,0,0,1,4.85,4.94,11.11,11.11,0,0,1,.67,3.94,11,11,0,0,1-.67,3.92,8.5,8.5,0,0,1-1.89,3,8.24,8.24,0,0,1-3,1.91,10.73,10.73,0,0,1-3.87.67,10.58,10.58,0,0,1-3.85-.67,8.26,8.26,0,0,1-2.94-1.91,8.48,8.48,0,0,1-1.89-3,11,11,0,0,1-.67-3.92A11.11,11.11,0,0,1,425,367Zm4.51,6.05a5.64,5.64,0,0,0,.72,1.85,3.81,3.81,0,0,0,1.35,1.31,4.11,4.11,0,0,0,2.1.49,4.21,4.21,0,0,0,2.12-.49,3.77,3.77,0,0,0,1.36-1.31,5.64,5.64,0,0,0,.72-1.85,10.62,10.62,0,0,0,.21-2.12,10.89,10.89,0,0,0-.21-2.14,5.45,5.45,0,0,0-.72-1.85,4,4,0,0,0-1.36-1.31,4.1,4.1,0,0,0-2.12-.51A3.82,3.82,0,0,0,430.2,367a5.45,5.45,0,0,0-.72,1.85,10.89,10.89,0,0,0-.21,2.14A10.62,10.62,0,0,0,429.48,373.06Z" transform="translate(-262.77 -352.35)"/><path d="M451.08,361.88v2.45h0.07a7.08,7.08,0,0,1,2.36-2.17,6.4,6.4,0,0,1,3.17-.77,7.29,7.29,0,0,1,3.13.67A4.4,4.4,0,0,1,462,364.4a7.69,7.69,0,0,1,2.19-2.1,5.81,5.81,0,0,1,3.27-.91,9.66,9.66,0,0,1,2.66.35,5.37,5.37,0,0,1,2.1,1.12,5.14,5.14,0,0,1,1.37,2,8.18,8.18,0,0,1,.49,3V380h-5V369.72q0-.91-0.07-1.72a3.65,3.65,0,0,0-.38-1.4,2.33,2.33,0,0,0-.93-0.94,3.36,3.36,0,0,0-1.66-.35,3.18,3.18,0,0,0-1.7.4,2.91,2.91,0,0,0-1,1.05,4.19,4.19,0,0,0-.49,1.47,11.23,11.23,0,0,0-.12,1.66V380h-5V369.82q0-.8,0-1.59a4.45,4.45,0,0,0-.3-1.45,2.24,2.24,0,0,0-.87-1.07,3.31,3.31,0,0,0-1.8-.4,3.73,3.73,0,0,0-.93.16,3.08,3.08,0,0,0-1.12.59,3.47,3.47,0,0,0-.93,1.26,5.11,5.11,0,0,0-.38,2.15V380h-5v-18.1h4.69Z" transform="translate(-262.77 -352.35)"/><path d="M482.68,361.88v2.31h0.07a5.46,5.46,0,0,1,2.31-2.13,7.09,7.09,0,0,1,3.08-.67,7.84,7.84,0,0,1,3.67.81,7.59,7.59,0,0,1,2.55,2.13,9,9,0,0,1,1.5,3.1,13.74,13.74,0,0,1,.49,3.69,12.42,12.42,0,0,1-.49,3.5,8.9,8.9,0,0,1-1.49,3,7.37,7.37,0,0,1-2.48,2.06,7.49,7.49,0,0,1-3.48.77,7,7,0,0,1-3.1-.68,5.86,5.86,0,0,1-2.33-2h-0.07v8.58h-5V361.88h4.73Zm6.46,14.35a4,4,0,0,0,1.33-1.28,5.27,5.27,0,0,0,.72-1.84,10.89,10.89,0,0,0,.21-2.14,10.07,10.07,0,0,0-.23-2.13,5.69,5.69,0,0,0-.75-1.87,4.2,4.2,0,0,0-1.35-1.33,3.77,3.77,0,0,0-2-.51,3.84,3.84,0,0,0-2,.51,4.08,4.08,0,0,0-1.33,1.31,5.47,5.47,0,0,0-.72,1.85,11.07,11.07,0,0,0-.21,2.17,10.07,10.07,0,0,0,.23,2.14,5.52,5.52,0,0,0,.74,1.84A4.24,4.24,0,0,0,489.14,376.23Z" transform="translate(-262.77 -352.35)"/><path d="M509.28,361.88v3.33h-3.64v9a1.68,1.68,0,0,0,2.1,2.1c0.28,0,.55,0,0.8,0a6.7,6.7,0,0,0,.74-0.1V380a11.88,11.88,0,0,1-1.4.14q-0.77,0-1.5,0a14.52,14.52,0,0,1-2.19-.16,5.14,5.14,0,0,1-1.82-.61,3.23,3.23,0,0,1-1.24-1.29,4.62,4.62,0,0,1-.46-2.21V365.2h-3v-3.33h3v-5.42h5v5.42h3.64Z" transform="translate(-262.77 -352.35)"/><rect class="cls-1" width="13.66" height="31.73"/><rect x="40.97" width="13.66" height="31.73"/><rect class="cls-2" x="27.31" width="13.66" height="31.73"/><rect class="cls-3" x="13.66" width="13.66" height="31.73"/></svg>
